HIERARCHY
ROOT Hips
{
	OFFSET 0.000000 0.000000 0.000000
	CHANNELS 6 Xposition Yposition Zposition Xrotation Yrotation Zrotation
	JOINT LeftUpLeg_virtual
	{
		OFFSET 0.000000 0.000000 0.000000
		CHANNELS 3 Xrotation Yrotation Zrotation
		JOINT LeftUpLeg
		{
			OFFSET 10.205400 -3.823500 0.155100
			CHANNELS 3 Xrotation Yrotation Zrotation
			JOINT LeftLeg
			{
				OFFSET 0.708757 -12.982077 0.567790
				CHANNELS 3 Xrotation Yrotation Zrotation
				JOINT LeftFoot
				{
					OFFSET -0.708756 -10.717838 -2.184338
					CHANNELS 3 Xrotation Yrotation Zrotation
					JOINT LeftToeBase
					{
						OFFSET 0.108149 -7.191104 7.560241
						CHANNELS 3 Xrotation Yrotation Zrotation
						JOINT LeftToe_End
						{
							OFFSET 0.070230 0.081724 4.490308
							CHANNELS 3 Xrotation Yrotation Zrotation
							End Site
							{
								OFFSET 0 0 0
							}
						}
					}
				}
			}
		}
	}
	JOINT RightUpLeg_virtual
	{
		OFFSET 0.000000 0.000000 0.000000
		CHANNELS 3 Xrotation Yrotation Zrotation
		JOINT RightUpLeg
		{
			OFFSET -10.205400 -3.823500 0.005500
			CHANNELS 3 Xrotation Yrotation Zrotation
			JOINT RightLeg
			{
				OFFSET -0.708756 -12.982134 0.610632
				CHANNELS 3 Xrotation Yrotation Zrotation
				JOINT RightFoot
				{
					OFFSET 0.708754 -10.717769 -1.945823
					CHANNELS 3 Xrotation Yrotation Zrotation
					JOINT RightToeBase
					{
						OFFSET -0.108140 -7.191069 7.372968
						CHANNELS 3 Xrotation Yrotation Zrotation
						JOINT RightToe_End
						{
							OFFSET -0.070227 0.081735 4.479403
							CHANNELS 3 Xrotation Yrotation Zrotation
							End Site
							{
								OFFSET 0 0 0
							}
						}
					}
				}
			}
		}
	}
	JOINT Spine_virtual
	{
		OFFSET 0.000000 0.000000 0.000000
		CHANNELS 3 Xrotation Yrotation Zrotation
		JOINT Spine
		{
			OFFSET 0.000000 6.876099 0.125700
			CHANNELS 3 Xrotation Yrotation Zrotation
			JOINT Spine1
			{
				OFFSET 0.000000 5.730043 0.104720
				CHANNELS 3 Xrotation Yrotation Zrotation
				JOINT Spine1_split
				{
					OFFSET 0.000000 5.730043 0.104720
					CHANNELS 3 Xrotation Yrotation Zrotation
					JOINT Spine2
					{
						OFFSET 0.000000 5.730043 0.104720
						CHANNELS 3 Xrotation Yrotation Zrotation
						JOINT Neck_virtual
						{
							OFFSET 0.000000 0.000000 0.000000
							CHANNELS 3 Xrotation Yrotation Zrotation
							JOINT Neck
							{
								OFFSET 0.000000 10.314075 0.188496
								CHANNELS 3 Xrotation Yrotation Zrotation
								JOINT Head
								{
									OFFSET 0.000000 7.643700 -2.377400
									CHANNELS 3 Xrotation Yrotation Zrotation
									JOINT HeadTop_End
									{
										OFFSET 0.000000 43.788605 -13.619600
										CHANNELS 3 Xrotation Yrotation Zrotation
										End Site
										{
											OFFSET 0 0 0
										}
									}
								}
							}
						}
						JOINT LeftShoulder_virtual
						{
							OFFSET 0.000000 0.000000 0.000000
							CHANNELS 3 Xrotation Yrotation Zrotation
							JOINT LeftShoulder
							{
								OFFSET 2.196100 4.412489 0.087492
								CHANNELS 3 Xrotation Yrotation Zrotation
								JOINT LeftShoulder_split
								{
									OFFSET 2.196100 4.412489 0.087492
									CHANNELS 3 Xrotation Yrotation Zrotation
									JOINT LeftArm
									{
										OFFSET 8.771219 -2.981674 -0.026999
										CHANNELS 3 Xrotation Yrotation Zrotation
										JOINT LeftForeArm
										{
											OFFSET 8.512804 0.000000 -0.000000
											CHANNELS 3 Xrotation Yrotation Zrotation
											JOINT LeftHand
											{
												OFFSET 18.484802 0.000000 -0.000000
												CHANNELS 3 Xrotation Yrotation Zrotation
												End Site
												{
													OFFSET 0 0 0
												}
											}
										}
									}
								}
							}
						}
						JOINT RightShoulder_virtual
						{
							OFFSET 0.000000 0.000000 0.000000
							CHANNELS 3 Xrotation Yrotation Zrotation
							JOINT RightShoulder
							{
								OFFSET -2.196100 4.412496 0.070690
								CHANNELS 3 Xrotation Yrotation Zrotation
								JOINT RightShoulder_split
								{
									OFFSET -2.196100 4.412496 0.070690
									CHANNELS 3 Xrotation Yrotation Zrotation
									JOINT RightArm
									{
										OFFSET -8.771282 -2.981682 -0.094208
										CHANNELS 3 Xrotation Yrotation Zrotation
										JOINT RightForeArm
										{
											OFFSET -8.494598 0.000000 0.000000
											CHANNELS 3 Xrotation Yrotation Zrotation
											JOINT RightHand
											{
												OFFSET -18.483803 0.000000 0.000001
												CHANNELS 3 Xrotation Yrotation Zrotation
												End Site
												{
													OFFSET 0 0 0
												}
											}
										}
									}
								}
							}
						}
					}
				}
			}
		}
	}
}
MOTION
Frames: 5
Frame Time: 0.03333333
0.012142 27.334900 -0.774294 0.000000 0.000000 0.000000 -15.800524 4.609903 0.588197 -16.767201 -2.248317 16.981177 60.974813 -1.151487 0.349489 -32.024592 2.887357 -16.114873 -1.289307 -0.101959 0.784808 0.000000 0.000000 0.000000 -16.230420 2.962322 0.457702 -8.497744 -4.348409 -19.368161 58.720605 4.061543 1.183428 -36.315347 -8.215426 14.666303 1.308637 -0.447792 -1.273799 0.000000 0.000000 0.000000 -15.158683 1.934432 0.029869 18.823262 -0.086610 2.441149 5.812505 -0.021819 -0.208563 2.183230 5.333034 -0.370295 0.000000 0.000000 0.000000 6.030657 -0.179133 0.417776 -11.057602 -1.395772 2.650513 -17.327821 1.935230 -0.737862 0.000000 0.000000 0.000000 7.843213 -0.206983 0.711629 3.577918 -7.918122 -4.742031 -4.958525 -1.121040 -4.187641 -10.600677 -17.677752 -58.543962 70.557924 -61.735969 70.976484 0.000000 0.000000 0.000000 7.505207 -0.090367 -0.097031 10.066719 -5.671076 16.095653 3.729572 2.949175 -0.941561 -27.633275 11.834654 60.463321 89.692767 61.331711 -84.425332 0.000000 0.000000 0.000000 
-0.038058 27.331280 -0.697485 0.000000 0.000000 0.000000 -15.888200 4.707978 0.512309 -16.686366 -2.538618 17.103975 60.876458 -1.221054 0.349503 -32.139308 2.871239 -16.041541 -1.163237 -0.083017 0.782606 0.000000 0.000000 0.000000 -16.320798 3.400353 0.451816 -8.194589 -4.332422 -19.267638 58.912936 4.114360 1.160194 -36.579280 -8.152476 14.478867 1.593671 -0.406741 -1.306092 0.000000 0.000000 0.000000 -15.322937 2.300011 -0.022785 18.757649 -0.172999 2.396226 6.002165 0.001178 -0.136322 2.045344 5.433812 -0.130653 0.000000 0.000000 0.000000 6.125014 -0.202998 0.465915 -11.329400 -1.156528 2.214057 -17.488027 2.166950 -0.776787 0.000000 0.000000 0.000000 7.892314 -0.149119 0.789272 3.670025 -7.881342 -4.363938 -4.616164 -1.215638 -4.378545 -12.604120 -18.014363 -60.169090 68.128460 -61.320912 68.677573 0.000000 0.000000 0.000000 7.617848 -0.096129 -0.054948 9.888772 -5.952248 16.140779 3.802916 2.229985 0.681875 -27.185229 10.540662 60.810308 87.362791 62.442170 -82.469425 0.000000 0.000000 0.000000 
-0.093246 27.346449 -0.620605 0.000000 0.000000 0.000000 -16.176299 4.886151 0.487579 -16.487547 -2.868789 17.011218 60.834309 -1.292977 0.440252 -32.401082 2.929772 -16.045421 -0.979638 -0.022756 0.673208 0.000000 0.000000 0.000000 -16.527144 3.849808 0.446710 -7.552153 -4.553622 -19.209291 58.966321 4.300327 1.064075 -36.750806 -8.163343 14.580837 1.499848 -0.430618 -1.344861 0.000000 0.000000 0.000000 -15.713272 2.869838 -0.073145 18.882697 -0.365919 2.199696 6.363228 0.098796 -0.002705 1.839903 4.711683 0.036579 0.000000 0.000000 0.000000 6.414979 -0.113576 0.472646 -11.200731 -0.891981 1.339857 -18.023157 2.292632 -0.761689 0.000000 0.000000 0.000000 8.028034 -0.025792 0.874776 3.497212 -8.586406 -4.048588 -4.408822 -1.981650 -3.591839 -12.885138 -17.216117 -60.248115 61.729569 -62.021335 62.585843 0.000000 0.000000 0.000000 7.942431 0.013702 0.068281 9.455932 -6.045696 16.239878 2.375504 1.729989 1.125061 -25.160481 11.300271 59.733829 83.456709 65.796551 -79.573849 0.000000 0.000000 0.000000 
-0.133654 27.393730 -0.562233 0.000000 0.000000 0.000000 -16.615415 5.093027 0.535719 -16.087314 -3.105177 16.633032 60.780323 -1.313959 0.625759 -32.710722 3.041984 -16.038114 -0.833690 0.059820 0.499079 0.000000 0.000000 0.000000 -16.812560 4.200595 0.469939 -6.600355 -5.004752 -19.208288 58.821254 4.517304 0.953765 -36.943609 -8.257004 14.724242 1.205443 -0.513041 -1.347985 0.000000 0.000000 0.000000 -16.235561 3.380316 -0.068554 19.130856 -0.655511 1.906142 6.811089 0.227346 0.122671 1.410597 3.413345 0.648037 0.000000 0.000000 0.000000 6.848078 0.003349 0.439147 -10.491829 -0.603549 0.199166 -18.659638 2.403025 -0.815955 0.000000 0.000000 0.000000 8.213945 0.088120 0.931485 3.126932 -9.834109 -3.614761 -4.300705 -3.316255 -2.403384 -11.228328 -15.767388 -58.195835 53.457271 -63.994064 54.629222 0.000000 0.000000 0.000000 8.368374 0.141063 0.210364 8.889057 -5.932135 16.090235 0.040586 1.391144 0.808330 -20.941454 13.580242 56.522329 80.170588 71.128907 -77.481960 0.000000 0.000000 0.000000 
-0.148770 27.502422 -0.501816 0.000000 0.000000 0.000000 -17.165312 5.238776 0.685290 -15.408763 -3.166935 15.984347 60.496413 -1.254870 0.861513 -32.916693 3.158676 -15.921530 -0.799001 0.138310 0.327371 0.000000 0.000000 0.000000 -17.168840 4.470125 0.576491 -5.453586 -5.645119 -19.231096 58.337219 4.596569 0.904190 -37.102899 -8.415929 14.610309 1.052662 -0.617958 -1.293305 0.000000 0.000000 0.000000 -16.871395 3.699600 0.022979 19.373272 -1.053028 1.570185 7.229707 0.294760 0.196131 0.628568 2.166063 1.178374 0.000000 0.000000 0.000000 7.406049 0.026756 0.368443 -8.873992 -0.262244 -0.962602 -19.127089 2.501731 -0.967518 0.000000 0.000000 0.000000 8.422520 0.095759 0.954350 2.670129 -11.302069 -2.870933 -4.375701 -4.068347 -1.791021 -8.044688 -14.325593 -53.785131 44.207716 -67.324457 45.753781 0.000000 0.000000 0.000000 8.826448 0.145067 0.329099 8.261250 -5.682189 15.452733 -1.713984 1.377369 0.099655 -14.318168 16.045795 50.901920 77.273133 77.723878 -75.457901 0.000000 0.000000 0.000000 
